<svg width="35" height="36" viewBox="0 0 35 36" fill="none" xmlns="http://www.w3.org/2000/svg">
<g clip-path="url(#clip0_17_380)">
<path d="M5.83334 17.7441C5.83334 11.3128 11.0688 6.07739 17.5 6.07739C23.9313 6.07739 29.1667 11.3128 29.1667 17.7441C29.1667 24.1753 23.9313 29.4107 17.5 29.4107C11.0688 29.4107 5.83334 24.1753 5.83334 17.7441ZM2.91667 17.7441C2.91667 25.7941 9.45 32.3274 17.5 32.3274C25.55 32.3274 32.0833 25.7941 32.0833 17.7441C32.0833 9.69406 25.55 3.16073 17.5 3.16073C9.45 3.16073 2.91667 9.69406 2.91667 17.7441ZM17.5 16.2857H11.6667L11.6667 19.2024H17.5V23.5774L23.3333 17.7441L17.5 11.9107V16.2857Z" fill="#EAEE12"/>
</g>
<defs>
<clipPath id="clip0_17_380">
<rect width="35" height="35" fill="white" transform="matrix(0 -1 1 0 0 35.2441)"/>
</clipPath>
</defs>
</svg>
