<svg width="46" height="47" viewBox="0 0 46 47" fill="none" xmlns="http://www.w3.org/2000/svg">
<path d="M8.40291 23.457C8.40291 15.1205 15.0991 8.33409 23.3247 8.33409C31.5504 8.33409 38.2465 15.1205 38.2465 23.457C38.2465 31.7935 31.5504 38.5799 23.3247 38.5799C15.0991 38.5799 8.40291 31.7935 8.40291 23.457ZM4.67245 23.457C4.67245 33.8918 13.0287 42.3606 23.3247 42.3606C33.6208 42.3606 41.977 33.8918 41.977 23.457C41.977 13.0222 33.6208 4.55336 23.3247 4.55336C13.0287 4.55336 4.67245 13.0222 4.67245 23.457ZM23.3247 21.5666H15.8638V25.3474H23.3247V31.0184L30.7856 23.457L23.3247 15.8955V21.5666Z" fill="#EAEE12"/>
</svg>
