<svg width="46" height="46" viewBox="0 0 46 46" fill="none" xmlns="http://www.w3.org/2000/svg">
<path d="M8.19366 22.8757C8.19366 14.6721 14.8769 7.99391 23.0866 7.99391C31.2963 7.99391 37.9795 14.6721 37.9795 22.8757C37.9795 31.0793 31.2963 37.7575 23.0866 37.7575C14.8769 37.7575 8.19366 31.0793 8.19366 22.8757ZM4.47043 22.8757C4.47043 33.1441 12.8105 41.4779 23.0866 41.4779C33.3627 41.4779 41.7027 33.1441 41.7027 22.8757C41.7027 12.6073 33.3627 4.27347 23.0866 4.27347C12.8105 4.27347 4.47043 12.6073 4.47043 22.8757ZM23.0866 21.0155H15.6401V24.7359H23.0866V30.3166L30.533 22.8757L23.0866 15.4348V21.0155Z" fill="#EAEE12"/>
</svg>
