<svg width="45" height="46" viewBox="0 0 45 46" fill="none" xmlns="http://www.w3.org/2000/svg">
<path d="M7.48574 22.8757C7.48574 14.6721 14.1631 7.99391 22.3656 7.99391C30.5681 7.99391 37.2454 14.6721 37.2454 22.8757C37.2454 31.0793 30.5681 37.7575 22.3656 37.7575C14.1631 37.7575 7.48574 31.0793 7.48574 22.8757ZM3.76578 22.8757C3.76578 33.1441 12.0985 41.4779 22.3656 41.4779C32.6327 41.4779 40.9654 33.1441 40.9654 22.8757C40.9654 12.6073 32.6327 4.27347 22.3656 4.27347C12.0985 4.27347 3.76578 12.6073 3.76578 22.8757ZM22.3656 21.0155H14.9257V24.7359H22.3656V30.3166L29.8055 22.8757L22.3656 15.4348V21.0155Z" fill="#EAEE12"/>
</svg>
