<svg width="30" height="31" viewBox="0 0 30 31" fill="none" xmlns="http://www.w3.org/2000/svg">
<path d="M8.33333 0.244141C3.73167 0.244141 0 3.97581 0 8.57747V21.9108C0 26.5125 3.73167 30.2441 8.33333 30.2441H21.6667C26.2683 30.2441 30 26.5125 30 21.9108V8.57747C30 3.97581 26.2683 0.244141 21.6667 0.244141H8.33333ZM25 3.57747C25.92 3.57747 26.6667 4.32414 26.6667 5.24414C26.6667 6.16414 25.92 6.91081 25 6.91081C24.08 6.91081 23.3333 6.16414 23.3333 5.24414C23.3333 4.32414 24.08 3.57747 25 3.57747ZM15 6.91081C19.6017 6.91081 23.3333 10.6425 23.3333 15.2441C23.3333 19.8458 19.6017 23.5775 15 23.5775C10.3983 23.5775 6.66667 19.8458 6.66667 15.2441C6.66667 10.6425 10.3983 6.91081 15 6.91081ZM15 10.2441C13.6739 10.2441 12.4021 10.7709 11.4645 11.7086C10.5268 12.6463 10 13.9181 10 15.2441C10 16.5702 10.5268 17.842 11.4645 18.7797C12.4021 19.7174 13.6739 20.2441 15 20.2441C16.3261 20.2441 17.5979 19.7174 18.5355 18.7797C19.4732 17.842 20 16.5702 20 15.2441C20 13.9181 19.4732 12.6463 18.5355 11.7086C17.5979 10.7709 16.3261 10.2441 15 10.2441Z" fill="#D2D2CD"/>
</svg>
