<svg width="30" height="31" viewBox="0 0 30 31" fill="none" xmlns="http://www.w3.org/2000/svg">
<path d="M28.35 20.8775C26.3 20.8775 24.3167 20.5441 22.4667 19.9441C21.8833 19.7441 21.2333 19.8941 20.7833 20.3441L18.1667 23.6275C13.45 21.3775 9.03333 17.1275 6.68333 12.2441L9.93333 9.47747C10.3833 9.01081 10.5167 8.36081 10.3333 7.77747C9.71667 5.92747 9.4 3.94414 9.4 1.89414C9.4 0.994141 8.65 0.244141 7.75 0.244141H1.98333C1.08333 0.244141 0 0.644141 0 1.89414C0 17.3775 12.8833 30.2441 28.35 30.2441C29.5333 30.2441 30 29.1941 30 28.2775V22.5275C30 21.6275 29.25 20.8775 28.35 20.8775Z" fill="#D2D2CD"/>
</svg>
