<svg width="34" height="32" viewBox="0 0 34 32" fill="none" xmlns="http://www.w3.org/2000/svg">
<path d="M31.569 20.4033L34 18.2017L31.569 16L25.5 21.4965L10.931 8.30189L17 2.80544L14.569 0.603775L12.138 2.80544L9.707 0.603775L6.069 3.89857L3.638 1.69691L1.207 3.89857L3.638 6.10023L0 9.39502L2.431 11.5967L0 13.7983L2.431 16L8.5 10.5035L23.069 23.6981L17 29.1946L19.431 31.3962L21.862 29.1946L24.293 31.3962L27.931 28.1014L30.362 30.3031L32.793 28.1014L30.362 25.8998L34 22.605L31.569 20.4033Z" fill="white"/>
</svg>
