<svg width="34" height="28" viewBox="0 0 34 28" fill="none" xmlns="http://www.w3.org/2000/svg">
<path d="M32.97 4.55398C32.5867 3.12064 31.4567 1.99064 30.0233 1.60731C27.4233 0.910645 17 0.910645 17 0.910645C17 0.910645 6.57666 0.910645 3.97667 1.60731C2.54333 1.99064 1.41333 3.12064 1.03 4.55398C0.333332 7.15398 0.333332 14.244 0.333332 14.244C0.333332 14.244 0.333332 21.334 1.03 23.934C1.41333 25.3673 2.54333 26.4973 3.97667 26.8806C6.57666 27.5773 17 27.5773 17 27.5773C17 27.5773 27.4233 27.5773 30.0233 26.8806C31.4583 26.4973 32.5867 25.3673 32.97 23.934C33.6667 21.334 33.6667 14.244 33.6667 14.244C33.6667 14.244 33.6667 7.15398 32.97 4.55398ZM13.6667 20.0173V8.47064L23.6667 14.244L13.6667 20.0173Z" fill="#D2D2CD"/>
</svg>
