<svg width="33" height="27" viewBox="0 0 33 27" fill="none" xmlns="http://www.w3.org/2000/svg">
<path d="M33 0.244141C31.713 0.996469 29.1308 2.02178 27.6128 2.31751C27.5682 2.32889 27.5319 2.34351 27.489 2.35488C26.1475 1.05171 24.3095 0.244141 22.275 0.244141C18.1747 0.244141 14.85 3.51831 14.85 7.55618C14.85 7.76904 14.8319 8.16065 14.85 8.36863C9.31755 8.36863 5.10675 5.51531 2.08725 1.86904C1.7589 2.68149 1.61535 3.96516 1.61535 5.17083C1.61535 7.44732 3.4221 9.68318 6.23535 11.0692C5.71725 11.2008 5.14635 11.2951 4.55235 11.2951C3.5937 11.2951 2.57895 11.0465 1.65 10.2925C1.65 10.3201 1.65 10.3461 1.65 10.3754C1.65 13.5569 5.0787 15.7229 8.1279 16.3258C7.50915 16.6849 6.26175 16.7206 5.6529 16.7206C5.2239 16.7206 3.7059 16.5273 3.3 16.4525C4.1481 19.0605 7.2072 20.5261 10.1228 20.5781C7.84245 22.3395 6.2601 22.9927 1.5906 22.9927H0C2.9502 24.8549 6.70725 26.2441 10.4726 26.2441C22.732 26.2441 29.7 17.0423 29.7 8.36863C29.7 8.22889 29.6967 7.93641 29.6918 7.6423C29.6918 7.61306 29.7 7.58543 29.7 7.55618C29.7 7.51231 29.6868 7.47006 29.6868 7.42619C29.6819 7.20521 29.6769 6.99884 29.6719 6.8916C30.9754 5.96541 32.1057 4.81011 33 3.49394C31.8037 4.01716 30.5201 4.36813 29.172 4.52737C30.5481 3.71492 32.5033 1.77804 33 0.244141Z" fill="#D2D2CD"/>
</svg>
