<svg width="38" height="38" viewBox="0 0 38 38" fill="none" xmlns="http://www.w3.org/2000/svg">
<path d="M4.41525 18.8757C4.41525 10.6721 11.0932 3.99391 19.2964 3.99391C27.4996 3.99391 34.1775 10.6721 34.1775 18.8757C34.1775 27.0793 27.4996 33.7575 19.2964 33.7575C11.0932 33.7575 4.41525 27.0793 4.41525 18.8757ZM0.694962 18.8757C0.694962 29.1441 9.0284 37.4779 19.2964 37.4779C29.5644 37.4779 37.8978 29.1441 37.8978 18.8757C37.8978 8.60726 29.5644 0.273468 19.2964 0.273468C9.0284 0.273468 0.694962 8.60726 0.694962 18.8757ZM19.2964 17.0155H11.8558V20.7359H19.2964V26.3166L26.7369 18.8757L19.2964 11.4348V17.0155Z" fill="#EAEE12"/>
</svg>
