<svg width="45" height="46" viewBox="0 0 45 46" fill="none" xmlns="http://www.w3.org/2000/svg">
<g clip-path="url(#clip0_13_6)">
<path d="M7.48571 22.8757C7.48571 14.6721 14.163 7.99391 22.3655 7.99391C30.5681 7.99391 37.2454 14.6721 37.2454 22.8757C37.2454 31.0793 30.5681 37.7575 22.3655 37.7575C14.163 37.7575 7.48571 31.0793 7.48571 22.8757ZM3.76575 22.8757C3.76575 33.1441 12.0985 41.4779 22.3655 41.4779C32.6326 41.4779 40.9653 33.1441 40.9653 22.8757C40.9653 12.6073 32.6326 4.27347 22.3655 4.27347C12.0985 4.27347 3.76575 12.6073 3.76575 22.8757ZM22.3655 21.0155H14.9256V24.7359H22.3655V30.3166L29.8055 22.8757L22.3655 15.4348V21.0155Z" fill="#EAEE12"/>
</g>
<defs>
<clipPath id="clip0_13_6">
<rect width="44.6453" height="44.6395" fill="white" transform="matrix(0 -1 1 0 0.0457764 45.1984)"/>
</clipPath>
</defs>
</svg>
